<?xml version="1.0" encoding="UTF-8"?><svg width="91px" height="30px" viewBox="0 0 91 30" version="1.1" xmlns="http://www.w3.org/2000/svg" xmlns:xlink="http://www.w3.org/1999/xlink"><title>amazon</title><desc></desc><defs><polygon id="path-1" points="0.261414724 0.808756731 43.6572218 0.808756731 43.6572218 10.5882353 0.261414724 10.5882353"></polygon><polygon id="path-3" points="0.618794118 0.469147059 12.0167647 0.469147059 12.0167647 15.9950294 0.618794118 15.9950294"></polygon><polygon id="path-5" points="0.201970588 0.331764706 13.4686988 0.331764706 13.4686988 16.1926765 0.201970588 16.1926765"></polygon><polygon id="path-7" points="0 0.331764706 13.2654047 0.331764706 13.2654047 16.1926765 0 16.1926765"></polygon></defs><g id="logo_amazon" stroke="none" stroke-width="1" fill="none" fill-rule="evenodd"><g id="Group" transform="translate(0.464844, 0.882353)">    <g id="Group-3" transform="translate(12.352941, 17.315294)"><mask id="mask-2" fill="white">    <use xlink:href="#path-1"></use></mask><g id="Clip-2"></g><path d="M43.2732353,4.69897059 C38.0638235,8.5425 30.51,10.5886765 24.0061765,10.5886765 C14.8914706,10.5886765 6.68382353,7.21897059 0.472058824,1.61073529 C-0.0158823529,1.17044118 0.42,0.567794118 1.005,0.909264706 C7.70647059,4.80926471 15.9944118,7.15720588 24.5541176,7.15720588 C30.3291176,7.15720588 36.6758824,5.95897059 42.5170588,3.48308824 C43.3976471,3.10897059 44.1352941,4.06279412 43.2732353,4.69897059" id="Fill-1" fill="#F39C00" mask="url(#mask-2)"></path></g><path d="M57.7941176,19.5395294 C57.1270588,18.6854118 53.3894118,19.1345294 51.7102941,19.3365882 C51.2002941,19.3974706 51.1226471,18.9527647 51.5814706,18.6307059 C54.5629412,16.536 59.4502941,17.1404118 60.0176471,17.8418824 C60.5894118,18.5495294 59.8676471,23.4492353 57.0723529,25.7865882 C56.6426471,26.1465882 56.2341176,25.9551176 56.4238235,25.4786471 C57.0529412,23.9098235 58.4611765,20.3927647 57.7941176,19.5395294" id="Fill-4" fill="#F39C00"></path><path d="M51.8295882,3.83382353 L51.8295882,1.79823529 C51.8295882,1.48852941 52.0642941,1.28205882 52.3448824,1.28294118 L61.4666471,1.28117647 C61.7578235,1.28117647 61.9925294,1.49470588 61.9925294,1.79558824 L61.9925294,3.54176471 C61.9907647,3.83470588 61.7437059,4.21764706 61.3042941,4.82205882 L56.5810588,11.5694118 C58.3334118,11.5279412 60.1898824,11.7908824 61.7834118,12.6864706 C62.1425294,12.8876471 62.2387059,13.1876471 62.2660588,13.4805882 L62.2660588,15.6520588 C62.2660588,15.9520588 61.9404706,16.2979412 61.5954706,16.1179412 C58.7887059,14.6470588 55.0625294,14.4855882 51.9575294,16.1347059 C51.6398824,16.3041176 51.309,15.9635294 51.309,15.6644118 L51.309,13.5988235 C51.309,13.2688235 51.3142941,12.7041176 51.6469412,12.2011765 L57.1219412,4.34735294 L52.3554706,4.34647059 C52.0642941,4.34647059 51.8313529,4.13735294 51.8295882,3.83382353" id="Fill-6" fill="#231916"></path><path d="M18.5535,16.5456176 L15.7785,16.5456176 C15.5155588,16.5279706 15.3029118,16.3303235 15.2826176,16.0770882 L15.2843824,1.83414706 C15.2843824,1.54738235 15.5235,1.32061765 15.8199706,1.32061765 L18.4035,1.31973529 C18.6743824,1.33385294 18.8923235,1.53855882 18.9090882,1.79797059 L18.9090882,3.65797059 L18.9611471,3.65797059 C19.6352647,1.85885294 20.9040882,1.01973529 22.6140882,1.01973529 C24.3487941,1.01973529 25.4367353,1.85885294 26.2140882,3.65797059 C26.8873235,1.85885294 28.4164412,1.01973529 30.0479118,1.01973529 C31.2152647,1.01973529 32.4832059,1.49973529 33.2605588,2.57885294 C34.1411471,3.77708824 33.9602647,5.51620588 33.9602647,7.04444118 L33.9585,16.0329706 C33.9585,16.3179706 33.7176176,16.5456176 33.4229118,16.5456176 L30.6514412,16.5456176 C30.3726176,16.5279706 30.1520294,16.3065 30.1520294,16.0329706 L30.1520294,8.48355882 C30.1520294,7.88355882 30.2032059,6.38444118 30.0743824,5.81532353 C29.8670294,4.85620588 29.2449706,4.58708824 28.4420294,4.58708824 C27.7679118,4.58708824 27.0682059,5.03708824 26.7840882,5.75532353 C26.4999706,6.47620588 26.5255588,7.67267647 26.5255588,8.48355882 L26.5255588,16.0329706 C26.5255588,16.3179706 26.2864412,16.5456176 25.9899706,16.5456176 L23.2185,16.5456176 C22.9396765,16.5279706 22.7190882,16.3065 22.7190882,16.0329706 L22.7173235,8.48355882 C22.7173235,6.89444118 22.9758529,4.55620588 21.0073235,4.55620588 C19.0123235,4.55620588 19.0908529,6.83444118 19.0908529,8.48355882 L19.0890882,16.0329706 C19.0890882,16.3179706 18.8499706,16.5456176 18.5535,16.5456176" id="Fill-8" fill="#231916"></path><path d="M69.8713235,3.92735294 C67.8242647,3.92735294 67.6945588,6.71470588 67.6945588,8.45382353 C67.6945588,10.1920588 67.6689706,13.9076471 69.8457353,13.9076471 C71.9960294,13.9076471 72.0992647,10.9111765 72.0992647,9.08294118 C72.0992647,7.88294118 72.0480882,6.44558824 71.6845588,5.30558824 C71.3739706,4.31735294 70.7519118,3.92735294 69.8713235,3.92735294 M69.8457353,1.02 C73.9645588,1.02 76.1925,4.55647059 76.1925,9.05294118 C76.1925,13.3985294 73.7316176,16.8467647 69.8457353,16.8467647 C65.8045588,16.8467647 63.6022059,13.3085294 63.6022059,8.90382353 C63.6022059,4.46647059 65.8301471,1.02 69.8457353,1.02" id="Fill-10" fill="#231916"></path><g id="Group-14" transform="translate(77.647059, 0.550588)"><mask id="mask-4" fill="white">    <use xlink:href="#path-3"></use></mask><g id="Clip-13"></g><path d="M3.88614706,15.9950294 L1.12173529,15.9950294 C0.842911765,15.9773824 0.624088235,15.7559118 0.624088235,15.4823824 L0.618794118,1.23502941 C0.642617647,0.973852941 0.872029412,0.770029412 1.15261765,0.770029412 L3.72732353,0.769147059 C3.96908824,0.7815 4.1685,0.947382353 4.22055882,1.16797059 L4.22055882,3.3465 L4.27173529,3.3465 C5.04908824,1.39826471 6.13702941,0.469147059 8.0535,0.469147059 C9.29761765,0.469147059 10.5143824,0.919147059 11.2917353,2.14826471 C12.0170294,3.28826471 12.0170294,5.20473529 12.0170294,6.58385294 L12.0170294,15.5459118 C11.9861471,15.7991471 11.7602647,15.9950294 11.4858529,15.9950294 L8.70467647,15.9950294 C8.44614706,15.9773824 8.23967647,15.7903235 8.20791176,15.5459118 L8.20791176,7.81385294 C8.20791176,6.25473529 8.39055882,3.9765 6.47320588,3.9765 C5.79908824,3.9765 5.17702941,4.4265 4.86820588,5.11561765 C4.47908824,5.98385294 4.42702941,6.85385294 4.42702941,7.81385294 L4.42702941,15.4823824 C4.42173529,15.7673824 4.18261765,15.9950294 3.88614706,15.9950294" id="Fill-12" fill="#231916" mask="url(#mask-4)"></path></g><g id="Group-17" transform="translate(36.176471, 0.550588)"><mask id="mask-6" fill="white">    <use xlink:href="#path-5"></use></mask><g id="Clip-16"></g><path d="M11.1793235,15.9588529 C10.9949118,16.1238529 10.7293235,16.1344412 10.5228529,16.0241471 C9.60079412,15.2573824 9.43491176,14.9044412 8.93197059,14.1756176 C7.40902941,15.7267941 6.32991176,16.1926765 4.35697059,16.1926765 C2.01961765,16.1926765 0.201970588,14.7491471 0.201970588,11.8656176 C0.201970588,9.61473529 1.42138235,8.08120588 3.16226471,7.33120588 C4.66844118,6.67032353 6.77108824,6.55032353 8.3805,6.36855882 L8.3805,6.00944118 C8.3805,5.34855882 8.43255882,4.56767647 8.04255882,3.99679412 C7.70461765,3.48502941 7.05697059,3.27591176 6.48520588,3.27591176 C5.42638235,3.27591176 4.48579412,3.81767647 4.25461765,4.94267647 C4.20697059,5.1915 4.02432353,5.43944118 3.77197059,5.45267647 L1.08255882,5.1615 C0.854911765,5.11032353 0.603441176,4.92767647 0.668735294,4.58091176 C1.28726471,1.31797059 4.23432353,0.3315 6.87432353,0.3315 C8.22344118,0.3315 9.98991176,0.692382353 11.0531471,1.71414706 C12.4049118,2.97591176 12.2734412,4.65767647 12.2734412,6.49032353 L12.2734412,10.8138529 C12.2734412,12.1135588 12.8152059,12.6844412 13.3216765,13.3867941 C13.4990294,13.6382647 13.5387353,13.9382647 13.3128529,14.1226765 C12.7455,14.5965 11.7396176,15.4726765 11.1846176,15.9659118 L11.1793235,15.9588529 Z M8.3805,9.19297059 C8.3805,10.2747353 8.40608824,11.1747353 7.86167647,12.1373824 C7.41873529,12.9182647 6.71902941,13.3991471 5.94079412,13.3991471 C4.87491176,13.3991471 4.25285294,12.5873824 4.25285294,11.3856176 C4.25285294,9.02179412 6.37314706,8.59208824 8.3805,8.59208824 L8.3805,9.19297059 Z" id="Fill-15" fill="#231916" mask="url(#mask-6)"></path></g><g id="Group-20" transform="translate(0.000000, 0.550588)"><mask id="mask-8" fill="white">    <use xlink:href="#path-7"></use></mask><g id="Clip-19"></g><path d="M10.9742647,15.9588529 C10.7916176,16.1238529 10.5260294,16.1344412 10.3195588,16.0241471 C9.3975,15.2573824 9.23161765,14.9044412 8.72779412,14.1756176 C7.20573529,15.7267941 6.12573529,16.1926765 4.15367647,16.1926765 C1.81632353,16.1926765 -0.000441176471,14.7491471 -0.000441176471,11.8656176 C-0.000441176471,9.61473529 1.21985294,8.08120588 2.95897059,7.33120588 C4.46426471,6.67032353 6.56779412,6.55032353 8.17720588,6.36855882 L8.17720588,6.00944118 C8.17720588,5.34855882 8.22926471,4.56767647 7.83926471,3.99679412 C7.50132353,3.48502941 6.85279412,3.27591176 6.28191176,3.27591176 C5.22308824,3.27591176 4.28161765,3.81767647 4.05132353,4.94267647 C4.00367647,5.1915 3.82102941,5.43944118 3.56867647,5.45267647 L0.880147059,5.1615 C0.651617647,5.11032353 0.400147059,4.92767647 0.465441176,4.58091176 C1.08308824,1.31797059 4.03014706,0.3315 6.67102941,0.3315 C8.02014706,0.3315 9.78661765,0.692382353 10.8516176,1.71414706 C12.2016176,2.97591176 12.0701471,4.65767647 12.0701471,6.49032353 L12.0701471,10.8138529 C12.0701471,12.1135588 12.6110294,12.6844412 13.1183824,13.3867941 C13.2957353,13.6382647 13.3354412,13.9382647 13.1095588,14.1226765 C12.5422059,14.5965 11.5354412,15.4726765 10.9813235,15.9659118 L10.9742647,15.9588529 Z M8.17720588,9.19297059 C8.17720588,10.2747353 8.20279412,11.1747353 7.65661765,12.1373824 C7.21720588,12.9182647 6.51573529,13.3991471 5.73573529,13.3991471 C4.67161765,13.3991471 4.04779412,12.5873824 4.04779412,11.3856176 C4.04779412,9.02179412 6.16985294,8.59208824 8.17720588,8.59208824 L8.17720588,9.19297059 Z" id="Fill-18" fill="#231916" mask="url(#mask-8)"></path></g></g></g></svg>
